<svg width="14" height="14" viewBox="0 0 16 18" fill="none" xmlns="http://www.w3.org/2000/svg">
<path d="M5.32 14.5138L0.4 9.59375C0.266667 9.46042 0.166667 9.31375 0.1 9.15375C0.0333333 8.99375 0 8.82708 0 8.65375C0 8.48042 0.0333333 8.31375 0.1 8.15375C0.166667 7.99375 0.266667 7.84708 0.4 7.71375L5 3.13375L3.5 1.63375C3.32667 1.46042 3.23667 1.25375 3.23 1.01375C3.22333 0.77375 3.30667 0.560417 3.48 0.37375C3.65333 0.187083 3.86667 0.09375 4.12 0.09375C4.37333 0.09375 4.59333 0.187083 4.78 0.37375L12.12 7.71375C12.2533 7.84708 12.35 7.99375 12.41 8.15375C12.47 8.31375 12.5 8.48042 12.5 8.65375C12.5 8.82708 12.47 8.99375 12.41 9.15375C12.35 9.31375 12.2533 9.46042 12.12 9.59375L7.2 14.5138C7.06667 14.6471 6.92 14.7471 6.76 14.8138C6.6 14.8804 6.43333 14.9137 6.26 14.9137C6.08667 14.9137 5.92 14.8804 5.76 14.8138C5.6 14.7471 5.45333 14.6471 5.32 14.5138ZM6.26 4.39375L1.98 8.67375H10.54L6.26 4.39375ZM14.24 13.9137C13.76 13.9137 13.3533 13.7438 13.02 13.4038C12.6867 13.0638 12.52 12.6471 12.52 12.1538C12.52 11.7938 12.61 11.4537 12.79 11.1337C12.97 10.8138 13.1733 10.5004 13.4 10.1938L13.78 9.71375C13.9 9.56708 14.0567 9.49042 14.25 9.48375C14.4433 9.47708 14.6 9.54708 14.72 9.69375L15.12 10.1938C15.3333 10.5004 15.5333 10.8138 15.72 11.1337C15.9067 11.4537 16 11.7938 16 12.1538C16 12.6471 15.8267 13.0638 15.48 13.4038C15.1333 13.7438 14.72 13.9137 14.24 13.9137Z" fill="#667085"/>
</svg>
